<svg width="256" height="256" viewBox="0 0 256 256" fill="none" xmlns="http://www.w3.org/2000/svg">
  <defs>
    <linearGradient id="bg" x1="32" y1="24" x2="224" y2="232" gradientUnits="userSpaceOnUse">
      <stop stop-color="#0B2545"/>
      <stop offset="0.55" stop-color="#0E5BD8"/>
      <stop offset="1" stop-color="#62C0FF"/>
    </linearGradient>
    <linearGradient id="accent" x1="160" y1="92" x2="222" y2="158" gradientUnits="userSpaceOnUse">
      <stop stop-color="#F2F9FF"/>
      <stop offset="1" stop-color="#B8E3FF"/>
    </linearGradient>
  </defs>
  <rect x="20" y="20" width="216" height="216" rx="48" fill="url(#bg)"/>
  <path d="M69 177V79H122C153.928 79 174 95.1441 174 120C174 144.856 153.928 161 122 161H96V177H69ZM96 139H120C135.494 139 145 132.59 145 120C145 107.41 135.494 101 120 101H96V139Z" fill="white"/>
  <rect x="159" y="92" width="58" height="58" rx="18" fill="url(#accent)" fill-opacity="0.95"/>
  <path d="M177 129L188.274 104H198.946L210 129H200.412L198.66 124.744H188.033L186.281 129H177ZM190.974 117.802H195.719L193.346 111.804L190.974 117.802Z" fill="#0B2545"/>
  <path d="M76 56H118" stroke="rgba(255,255,255,0.18)" stroke-width="8" stroke-linecap="round"/>
  <path d="M140 190H189" stroke="rgba(255,255,255,0.28)" stroke-width="8" stroke-linecap="round"/>
</svg>
